/* XPM */
static char *d0a521d36cc045b390ceb464b02173bbEEMO60zopKPrE4c2[] = {
/* columns rows colors chars-per-pixel */
"32 32 2 1 ",
"  c #B42313",
". c #F4F1DE",
/* pixels */
"  .       .       .       .     ",
"  .       .       .       .     ",
"  .       .       .       .     ",
"................................",
"    .       .       .       .   ",
"    .       .       .       .   ",
"    .       .       .       .   ",
"................................",
".       .       .       .       ",
".       .       .       .       ",
".       .       .       .       ",
"................................",
"  .       .       .       .     ",
"  .       .       .       .     ",
"  .       .       .       .     ",
"................................",
"    .       .       .       .   ",
"    .       .       .       .   ",
"    .       .       .       .   ",
"................................",
".       .       .       .       ",
".       .       .       .       ",
".       .       .       .       ",
"................................",
"  .       .       .       .     ",
"  .       .       .       .     ",
"  .       .       .       .     ",
"................................",
"    .       .       .       .   ",
"    .       .       .       .   ",
"    .       .       .       .   ",
"................................"
};
