/* XPM */
static char *_8a6262d188c46e4fa85059d17806a9fCWtBDUEGIW83rgsU[] = {
/* columns rows colors chars-per-pixel */
"64 64 16 1 ",
"  c black",
". c gray28",
"X c #5F5F5F",
"o c gray47",
"O c #DB0303",
"+ c #FF3D00",
"@ c #FF6F00",
"# c #FF9800",
"$ c #FFC400",
"% c yellow",
"& c #FFD740",
"* c #FFE57F",
"= c #999799",
"- c gray68",
"; c gray94",
": c white",
/* pixels */
"%%%%XXXXXXXXXXXXXXXXXXXXXXXXXXXXXXXXXXXXXXXXXXXXXXXXXXXXXXXX    ",
"%%%%XXXXXXXXXXXXXXXXXXXXXXXXXXXXXXXXXXXXXXXXXXXXXXXXXXXXXXXX    ",
"%%%%XXXXXXXXXXXXXXXXXXXXXXXXXXXXXXXXXXXXXXXXXXXXXXXXXXXXXXXX    ",
"%%%%XXXXXXXXXXXXXXXXXXXXXXXXXXXXXXXXXXXXXXXXXXXXXXXXXXXXXXXX    ",
"XXXX--------------------------------------------------------XXXX",
"XXXX--------------------------------------------------------XXXX",
"XXXX--------------------------------------------------------XXXX",
"XXXX--------------------------------------------------------XXXX",
"XXXX--------------------------------------------------------XXXX",
"XXXX--------------------------------------------------------XXXX",
"XXXX--------------------------------------------------------XXXX",
"XXXX--------------------------------------------------------XXXX",
"XXXX----++++----++++--------++++----------------------------XXXX",
"XXXX----++++----++++--------++++----------------------------XXXX",
"XXXX----++++----++++--------++++----------------------------XXXX",
"XXXX----++++----++++--------++++----------------------------XXXX",
"XXXX----------------++++--------++++----++++----------------XXXX",
"XXXX----------------++++--------++++----++++----------------XXXX",
"XXXX----------------++++--------++++----++++----------------XXXX",
"XXXX----------------++++--------++++----++++----------------XXXX",
"XXXX----@@@@--------++++++++++++@@@@++++++++--------++++----XXXX",
"XXXX----@@@@--------++++++++++++@@@@++++++++--------++++----XXXX",
"XXXX----@@@@--------++++++++++++@@@@++++++++--------++++----XXXX",
"XXXX----@@@@--------++++++++++++@@@@++++++++--------++++----XXXX",
"XXXX------------++++@@@@++++@@@@@@@@####++++----++++++++----XXXX",
"XXXX------------++++@@@@++++@@@@@@@@####++++----++++++++----XXXX",
"XXXX------------++++@@@@++++@@@@@@@@####++++----++++++++----XXXX",
"XXXX------------++++@@@@++++@@@@@@@@####++++----++++++++----XXXX",
"XXXX----OOOO;;;;++++####@@@@;;;;####@@@@++++++++@@@@--------XXXX",
"XXXX----OOOO;;;;++++####@@@@;;;;####@@@@++++++++@@@@--------XXXX",
"XXXX----OOOO;;;;++++####@@@@;;;;####@@@@++++++++@@@@--------XXXX",
"XXXX----OOOO;;;;++++####@@@@;;;;####@@@@++++++++@@@@--------XXXX",
"XXXX----;;;;XXXXXXXXXXXXXXXX;;;;$$$$@@@@@@@@@@@@++++--------XXXX",
"XXXX----;;;;XXXXXXXXXXXXXXXX;;;;$$$$@@@@@@@@@@@@++++--------XXXX",
"XXXX----;;;;XXXXXXXXXXXXXXXX;;;;$$$$@@@@@@@@@@@@++++--------XXXX",
"XXXX----;;;;XXXXXXXXXXXXXXXX;;;;$$$$@@@@@@@@@@@@++++--------XXXX",
"XXXX--------####....####OOOOoooo****####&&&&@@@@++++--------XXXX",
"XXXX--------####....####OOOOoooo****####&&&&@@@@++++--------XXXX",
"XXXX--------####....####OOOOoooo****####&&&&@@@@++++--------XXXX",
"XXXX--------####....####OOOOoooo****####&&&&@@@@++++--------XXXX",
"XXXX--------OOOO@@@@####OOOOXXXX====oooo====oooo;;;;OOOO----XXXX",
"XXXX--------OOOO@@@@####OOOOXXXX====oooo====oooo;;;;OOOO----XXXX",
"XXXX--------OOOO@@@@####OOOOXXXX====oooo====oooo;;;;OOOO----XXXX",
"XXXX--------OOOO@@@@####OOOOXXXX====oooo====oooo;;;;OOOO----XXXX",
"XXXX----OOOO####@@@@####$$$$&&&&OOOO;;;;;;;;;;;;OOOOOOOO----XXXX",
"XXXX----OOOO####@@@@####$$$$&&&&OOOO;;;;;;;;;;;;OOOOOOOO----XXXX",
"XXXX----OOOO####@@@@####$$$$&&&&OOOO;;;;;;;;;;;;OOOOOOOO----XXXX",
"XXXX----OOOO####@@@@####$$$$&&&&OOOO;;;;;;;;;;;;OOOOOOOO----XXXX",
"XXXX----OOOOOOOO@@@@$$$$&&&&$$$$####OOOOOOOOOOOOOOOO::::----XXXX",
"XXXX----OOOOOOOO@@@@$$$$&&&&$$$$####OOOOOOOOOOOOOOOO::::----XXXX",
"XXXX----OOOOOOOO@@@@$$$$&&&&$$$$####OOOOOOOOOOOOOOOO::::----XXXX",
"XXXX----OOOOOOOO@@@@$$$$&&&&$$$$####OOOOOOOOOOOOOOOO::::----XXXX",
"XXXX----;;;;;;;;;;;;####$$$$&&&&$$$$####;;;;;;;;;;;;--------XXXX",
"XXXX----;;;;;;;;;;;;####$$$$&&&&$$$$####;;;;;;;;;;;;--------XXXX",
"XXXX----;;;;;;;;;;;;####$$$$&&&&$$$$####;;;;;;;;;;;;--------XXXX",
"XXXX----;;;;;;;;;;;;####$$$$&&&&$$$$####;;;;;;;;;;;;--------XXXX",
"XXXX--------------------------------------------------------XXXX",
"XXXX--------------------------------------------------------XXXX",
"XXXX--------------------------------------------------------XXXX",
"XXXX--------------------------------------------------------XXXX",
"    XXXXXXXXXXXXXXXXXXXXXXXXXXXXXXXXXXXXXXXXXXXXXXXXXXXXXXXX%%%%",
"    XXXXXXXXXXXXXXXXXXXXXXXXXXXXXXXXXXXXXXXXXXXXXXXXXXXXXXXX%%%%",
"    XXXXXXXXXXXXXXXXXXXXXXXXXXXXXXXXXXXXXXXXXXXXXXXXXXXXXXXX%%%%",
"    XXXXXXXXXXXXXXXXXXXXXXXXXXXXXXXXXXXXXXXXXXXXXXXXXXXXXXXX%%%%"
};
