/* XPM */
static char *a0192b912bcb4a56c59e67f9ddd0901eq7LT19zkyO5F0Qog[] = {
/* columns rows colors chars-per-pixel */
"64 64 6 1 ",
"  c black",
". c #5F5F5F",
"X c red",
"o c yellow",
"O c gray68",
"+ c white",
/* pixels */
"oooo....++++        ++++++++        ++++++++        ++++....    ",
"oooo....++++        ++++++++        ++++++++        ++++....    ",
"oooo....++++        ++++++++        ++++++++        ++++....    ",
"oooo....++++        ++++++++        ++++++++        ++++....    ",
"....OOOOOOOOOOOOOOOOOOOOOOOOOOOOOOOOOOOOOOOOOOOOOOOOOOOOOOOO....",
"....OOOOOOOOOOOOOOOOOOOOOOOOOOOOOOOOOOOOOOOOOOOOOOOOOOOOOOOO....",
"....OOOOOOOOOOOOOOOOOOOOOOOOOOOOOOOOOOOOOOOOOOOOOOOOOOOOOOOO....",
"....OOOOOOOOOOOOOOOOOOOOOOOOOOOOOOOOOOOOOOOOOOOOOOOOOOOOOOOO....",
"++++OOOOOOOOOOOO....OOOOOOOOOOOOOOOOOOOOOOOO....OOOOOOOOOOOO++++",
"++++OOOOOOOOOOOO....OOOOOOOOOOOOOOOOOOOOOOOO....OOOOOOOOOOOO++++",
"++++OOOOOOOOOOOO....OOOOOOOOOOOOOOOOOOOOOOOO....OOOOOOOOOOOO++++",
"++++OOOOOOOOOOOO....OOOOOOOOOOOOOOOOOOOOOOOO....OOOOOOOOOOOO++++",
"    OOOOOOOO....OOOOOOOOOOOOOOOOOOOOOOOOOOOOOOOO....OOOOOOOO    ",
"    OOOOOOOO....OOOOOOOOOOOOOOOOOOOOOOOOOOOOOOOO....OOOOOOOO    ",
"    OOOOOOOO....OOOOOOOOOOOOOOOOOOOOOOOOOOOOOOOO....OOOOOOOO    ",
"    OOOOOOOO....OOOOOOOOOOOOOOOOOOOOOOOOOOOOOOOO....OOOOOOOO    ",
"    OOOO....OOOO....OOOO................OOOO....OOOO....OOOO    ",
"    OOOO....OOOO....OOOO................OOOO....OOOO....OOOO    ",
"    OOOO....OOOO....OOOO................OOOO....OOOO....OOOO    ",
"    OOOO....OOOO....OOOO................OOOO....OOOO....OOOO    ",
"++++OOOOOOOOOOOOOOOO....++++++++++++++++....OOOOOOOOOOOOOOOO++++",
"++++OOOOOOOOOOOOOOOO....++++++++++++++++....OOOOOOOOOOOOOOOO++++",
"++++OOOOOOOOOOOOOOOO....++++++++++++++++....OOOOOOOOOOOOOOOO++++",
"++++OOOOOOOOOOOOOOOO....++++++++++++++++....OOOOOOOOOOOOOOOO++++",
"++++OOOOOOOOOOOO....++++++++........++++++++....OOOOOOOOOOOO++++",
"++++OOOOOOOOOOOO....++++++++........++++++++....OOOOOOOOOOOO++++",
"++++OOOOOOOOOOOO....++++++++........++++++++....OOOOOOOOOOOO++++",
"++++OOOOOOOOOOOO....++++++++........++++++++....OOOOOOOOOOOO++++",
"    OOOOOOOOOOOO....++++....XXXXXXXX....++++....OOOOOOOOOOOO    ",
"    OOOOOOOOOOOO....++++....XXXXXXXX....++++....OOOOOOOOOOOO    ",
"    OOOOOOOOOOOO....++++....XXXXXXXX....++++....OOOOOOOOOOOO    ",
"    OOOOOOOOOOOO....++++....XXXXXXXX....++++....OOOOOOOOOOOO    ",
"    OOOOOOOOOOOO....++++....XXXXXXXX....++++....OOOOOOOOOOOO    ",
"    OOOOOOOOOOOO....++++....XXXXXXXX....++++....OOOOOOOOOOOO    ",
"    OOOOOOOOOOOO....++++....XXXXXXXX....++++....OOOOOOOOOOOO    ",
"    OOOOOOOOOOOO....++++....XXXXXXXX....++++....OOOOOOOOOOOO    ",
"++++OOOOOOOOOOOO....++++++++........++++++++....OOOOOOOOOOOO++++",
"++++OOOOOOOOOOOO....++++++++........++++++++....OOOOOOOOOOOO++++",
"++++OOOOOOOOOOOO....++++++++........++++++++....OOOOOOOOOOOO++++",
"++++OOOOOOOOOOOO....++++++++........++++++++....OOOOOOOOOOOO++++",
"++++OOOOOOOOOOOOOOOO....++++++++++++++++....OOOOOOOOOOOOOOOO++++",
"++++OOOOOOOOOOOOOOOO....++++++++++++++++....OOOOOOOOOOOOOOOO++++",
"++++OOOOOOOOOOOOOOOO....++++++++++++++++....OOOOOOOOOOOOOOOO++++",
"++++OOOOOOOOOOOOOOOO....++++++++++++++++....OOOOOOOOOOOOOOOO++++",
"    OOOO....OOOO....OOOO................OOOO....OOOO....OOOO    ",
"    OOOO....OOOO....OOOO................OOOO....OOOO....OOOO    ",
"    OOOO....OOOO....OOOO................OOOO....OOOO....OOOO    ",
"    OOOO....OOOO....OOOO................OOOO....OOOO....OOOO    ",
"    OOOOOOOO....OOOOOOOOOOOOOOOOOOOOOOOOOOOOOOOO....OOOOOOOO    ",
"    OOOOOOOO....OOOOOOOOOOOOOOOOOOOOOOOOOOOOOOOO....OOOOOOOO    ",
"    OOOOOOOO....OOOOOOOOOOOOOOOOOOOOOOOOOOOOOOOO....OOOOOOOO    ",
"    OOOOOOOO....OOOOOOOOOOOOOOOOOOOOOOOOOOOOOOOO....OOOOOOOO    ",
"++++OOOOOOOOOOOO....OOOOOOOOOOOOOOOOOOOOOOOO....OOOOOOOOOOOO++++",
"++++OOOOOOOOOOOO....OOOOOOOOOOOOOOOOOOOOOOOO....OOOOOOOOOOOO++++",
"++++OOOOOOOOOOOO....OOOOOOOOOOOOOOOOOOOOOOOO....OOOOOOOOOOOO++++",
"++++OOOOOOOOOOOO....OOOOOOOOOOOOOOOOOOOOOOOO....OOOOOOOOOOOO++++",
"....OOOOOOOOOOOOOOOOOOOOOOOOOOOOOOOOOOOOOOOOOOOOOOOOOOOOOOOO....",
"....OOOOOOOOOOOOOOOOOOOOOOOOOOOOOOOOOOOOOOOOOOOOOOOOOOOOOOOO....",
"....OOOOOOOOOOOOOOOOOOOOOOOOOOOOOOOOOOOOOOOOOOOOOOOOOOOOOOOO....",
"....OOOOOOOOOOOOOOOOOOOOOOOOOOOOOOOOOOOOOOOOOOOOOOOOOOOOOOOO....",
"    ....++++        ++++++++        ++++++++        ++++....oooo",
"    ....++++        ++++++++        ++++++++        ++++....oooo",
"    ....++++        ++++++++        ++++++++        ++++....oooo",
"    ....++++        ++++++++        ++++++++        ++++....oooo"
};
