/* XPM */
static char *b575193e49b64a9ef8344cd46e6d21600gclIbvmPIqk56W8[] = {
/* columns rows colors chars-per-pixel */
"64 64 6 1 ",
"  c black",
". c #5F5F5F",
"X c #74FF03",
"o c yellow",
"O c gray68",
"+ c white",
/* pixels */
"oooo....++++        ++++++++        ++++++++        ++++....    ",
"oooo....++++        ++++++++        ++++++++        ++++....    ",
"oooo....++++        ++++++++        ++++++++        ++++....    ",
"oooo....++++        ++++++++        ++++++++        ++++....    ",
"....OOOOOOOOOOOOOOOOOOOOOOOOOOOOOOOOOOOOOOOOOOOOOOOOOOOOOOOO....",
"....OOOOOOOOOOOOOOOOOOOOOOOOOOOOOOOOOOOOOOOOOOOOOOOOOOOOOOOO....",
"....OOOOOOOOOOOOOOOOOOOOOOOOOOOOOOOOOOOOOOOOOOOOOOOOOOOOOOOO....",
"....OOOOOOOOOOOOOOOOOOOOOOOOOOOOOOOOOOOOOOOOOOOOOOOOOOOOOOOO....",
"++++OOOOOOOOOOOOOOOOOOOOOOOOOOOOOOOOOOOOOOOOOOOOOOOOOOOOOOOO++++",
"++++OOOOOOOOOOOOOOOOOOOOOOOOOOOOOOOOOOOOOOOOOOOOOOOOOOOOOOOO++++",
"++++OOOOOOOOOOOOOOOOOOOOOOOOOOOOOOOOOOOOOOOOOOOOOOOOOOOOOOOO++++",
"++++OOOOOOOOOOOOOOOOOOOOOOOOOOOOOOOOOOOOOOOOOOOOOOOOOOOOOOOO++++",
"    OOOOOOOOOOOO....OOOOOOOOOOOOOOOOOOOOOOOO....OOOOOOOOOOOO    ",
"    OOOOOOOOOOOO....OOOOOOOOOOOOOOOOOOOOOOOO....OOOOOOOOOOOO    ",
"    OOOOOOOOOOOO....OOOOOOOOOOOOOOOOOOOOOOOO....OOOOOOOOOOOO    ",
"    OOOOOOOOOOOO....OOOOOOOOOOOOOOOOOOOOOOOO....OOOOOOOOOOOO    ",
"    OOOOOOOO........OOOO................OOOO........OOOOOOOO    ",
"    OOOOOOOO........OOOO................OOOO........OOOOOOOO    ",
"    OOOOOOOO........OOOO................OOOO........OOOOOOOO    ",
"    OOOOOOOO........OOOO................OOOO........OOOOOOOO    ",
"++++OOOOOOOOOOOOOOOO....++++++++++++++++....OOOOOOOOOOOOOOOO++++",
"++++OOOOOOOOOOOOOOOO....++++++++++++++++....OOOOOOOOOOOOOOOO++++",
"++++OOOOOOOOOOOOOOOO....++++++++++++++++....OOOOOOOOOOOOOOOO++++",
"++++OOOOOOOOOOOOOOOO....++++++++++++++++....OOOOOOOOOOOOOOOO++++",
"++++OOOOOOOOOOOO....++++++++........++++++++....OOOOOOOOOOOO++++",
"++++OOOOOOOOOOOO....++++++++........++++++++....OOOOOOOOOOOO++++",
"++++OOOOOOOOOOOO....++++++++........++++++++....OOOOOOOOOOOO++++",
"++++OOOOOOOOOOOO....++++++++........++++++++....OOOOOOOOOOOO++++",
"    OOOOOOOOOOOO....++++....XXXXXXXX....++++....OOOOOOOOOOOO    ",
"    OOOOOOOOOOOO....++++....XXXXXXXX....++++....OOOOOOOOOOOO    ",
"    OOOOOOOOOOOO....++++....XXXXXXXX....++++....OOOOOOOOOOOO    ",
"    OOOOOOOOOOOO....++++....XXXXXXXX....++++....OOOOOOOOOOOO    ",
"    OOOOOOOOOOOO....++++....XXXXXXXX....++++....OOOOOOOOOOOO    ",
"    OOOOOOOOOOOO....++++....XXXXXXXX....++++....OOOOOOOOOOOO    ",
"    OOOOOOOOOOOO....++++....XXXXXXXX....++++....OOOOOOOOOOOO    ",
"    OOOOOOOOOOOO....++++....XXXXXXXX....++++....OOOOOOOOOOOO    ",
"++++OOOOOOOOOOOO....++++++++........++++++++....OOOOOOOOOOOO++++",
"++++OOOOOOOOOOOO....++++++++........++++++++....OOOOOOOOOOOO++++",
"++++OOOOOOOOOOOO....++++++++........++++++++....OOOOOOOOOOOO++++",
"++++OOOOOOOOOOOO....++++++++........++++++++....OOOOOOOOOOOO++++",
"++++OOOOOOOOOOOOOOOO....++++++++++++++++....OOOOOOOOOOOOOOOO++++",
"++++OOOOOOOOOOOOOOOO....++++++++++++++++....OOOOOOOOOOOOOOOO++++",
"++++OOOOOOOOOOOOOOOO....++++++++++++++++....OOOOOOOOOOOOOOOO++++",
"++++OOOOOOOOOOOOOOOO....++++++++++++++++....OOOOOOOOOOOOOOOO++++",
"    OOOOOOOO........OOOO................OOOO........OOOOOOOO    ",
"    OOOOOOOO........OOOO................OOOO........OOOOOOOO    ",
"    OOOOOOOO........OOOO................OOOO........OOOOOOOO    ",
"    OOOOOOOO........OOOO................OOOO........OOOOOOOO    ",
"    OOOOOOOOOOOO....OOOOOOOOOOOOOOOOOOOOOOOO....OOOOOOOOOOOO    ",
"    OOOOOOOOOOOO....OOOOOOOOOOOOOOOOOOOOOOOO....OOOOOOOOOOOO    ",
"    OOOOOOOOOOOO....OOOOOOOOOOOOOOOOOOOOOOOO....OOOOOOOOOOOO    ",
"    OOOOOOOOOOOO....OOOOOOOOOOOOOOOOOOOOOOOO....OOOOOOOOOOOO    ",
"++++OOOOOOOOOOOOOOOOOOOOOOOOOOOOOOOOOOOOOOOOOOOOOOOOOOOOOOOO++++",
"++++OOOOOOOOOOOOOOOOOOOOOOOOOOOOOOOOOOOOOOOOOOOOOOOOOOOOOOOO++++",
"++++OOOOOOOOOOOOOOOOOOOOOOOOOOOOOOOOOOOOOOOOOOOOOOOOOOOOOOOO++++",
"++++OOOOOOOOOOOOOOOOOOOOOOOOOOOOOOOOOOOOOOOOOOOOOOOOOOOOOOOO++++",
"....OOOOOOOOOOOOOOOOOOOOOOOOOOOOOOOOOOOOOOOOOOOOOOOOOOOOOOOO....",
"....OOOOOOOOOOOOOOOOOOOOOOOOOOOOOOOOOOOOOOOOOOOOOOOOOOOOOOOO....",
"....OOOOOOOOOOOOOOOOOOOOOOOOOOOOOOOOOOOOOOOOOOOOOOOOOOOOOOOO....",
"....OOOOOOOOOOOOOOOOOOOOOOOOOOOOOOOOOOOOOOOOOOOOOOOOOOOOOOOO....",
"    ....++++        ++++++++        ++++++++        ++++....oooo",
"    ....++++        ++++++++        ++++++++        ++++....oooo",
"    ....++++        ++++++++        ++++++++        ++++....oooo",
"    ....++++        ++++++++        ++++++++        ++++....oooo"
};
