/* XPM */
static char *_4153614017842f9d453fc0f7b0cf8a0aYaijcEbqbZYVROc[] = {
/* columns rows colors chars-per-pixel */
"64 64 8 1 ",
"  c black",
". c #5F5F5F",
"X c red",
"o c #884600",
"O c yellow",
"+ c #18FFFF",
"@ c gray68",
"# c white",
/* pixels */
"OOOO....####        ########        ########        ####....    ",
"OOOO....####        ########        ########        ####....    ",
"OOOO....####        ########        ########        ####....    ",
"OOOO....####        ########        ########        ####....    ",
"....@@@@@@@@@@@@@@@@@@@@@@@@@@@@@@@@@@@@@@@@@@@@@@@@@@@@@@@@....",
"....@@@@@@@@@@@@@@@@@@@@@@@@@@@@@@@@@@@@@@@@@@@@@@@@@@@@@@@@....",
"....@@@@@@@@@@@@@@@@@@@@@@@@@@@@@@@@@@@@@@@@@@@@@@@@@@@@@@@@....",
"....@@@@@@@@@@@@@@@@@@@@@@@@@@@@@@@@@@@@@@@@@@@@@@@@@@@@@@@@....",
"####@@@@................................................@@@@####",
"####@@@@................................................@@@@####",
"####@@@@................................................@@@@####",
"####@@@@................................................@@@@####",
"    @@@@....                                        ....@@@@    ",
"    @@@@....                                        ....@@@@    ",
"    @@@@....                                        ....@@@@    ",
"    @@@@....                                        ....@@@@    ",
"    @@@@................................................@@@@    ",
"    @@@@................................................@@@@    ",
"    @@@@................................................@@@@    ",
"    @@@@................................................@@@@    ",
"####@@@@....                                        ....@@@@####",
"####@@@@....                                        ....@@@@####",
"####@@@@....                                        ....@@@@####",
"####@@@@....                                        ....@@@@####",
"####@@@@................................................@@@@####",
"####@@@@................................................@@@@####",
"####@@@@................................................@@@@####",
"####@@@@................................................@@@@####",
"    @@@@....                                        ....@@@@    ",
"    @@@@....                                        ....@@@@    ",
"    @@@@....                                        ....@@@@    ",
"    @@@@....                                        ....@@@@    ",
"    @@@@................................................@@@@    ",
"    @@@@................................................@@@@    ",
"    @@@@................................................@@@@    ",
"    @@@@................................................@@@@    ",
"####@@@@....    XXXXXXXXXXXXXXXXXXXXXXXXXXXXXXXX####....@@@@####",
"####@@@@....    XXXXXXXXXXXXXXXXXXXXXXXXXXXXXXXX####....@@@@####",
"####@@@@....    XXXXXXXXXXXXXXXXXXXXXXXXXXXXXXXX####....@@@@####",
"####@@@@....    XXXXXXXXXXXXXXXXXXXXXXXXXXXXXXXX####....@@@@####",
"####@@@@................................................@@@@####",
"####@@@@................................................@@@@####",
"####@@@@................................................@@@@####",
"####@@@@................................................@@@@####",
"    @@@@    XXXXXXXX    ++++++++++++++++    XXXX########@@@@    ",
"    @@@@    XXXXXXXX    ++++++++++++++++    XXXX########@@@@    ",
"    @@@@    XXXXXXXX    ++++++++++++++++    XXXX########@@@@    ",
"    @@@@    XXXXXXXX    ++++++++++++++++    XXXX########@@@@    ",
"    @@@@    XXXXXXXXXXXX                XXXXXXXX########@@@@    ",
"    @@@@    XXXXXXXXXXXX                XXXXXXXX########@@@@    ",
"    @@@@    XXXXXXXXXXXX                XXXXXXXX########@@@@    ",
"    @@@@    XXXXXXXXXXXX                XXXXXXXX########@@@@    ",
"####@@@@    XXXXXXXXXXXXXXXXXXXXXXXXXXXXXXXXXXXXoooo    @@@@####",
"####@@@@    XXXXXXXXXXXXXXXXXXXXXXXXXXXXXXXXXXXXoooo    @@@@####",
"####@@@@    XXXXXXXXXXXXXXXXXXXXXXXXXXXXXXXXXXXXoooo    @@@@####",
"####@@@@    XXXXXXXXXXXXXXXXXXXXXXXXXXXXXXXXXXXXoooo    @@@@####",
"....@@@@@@@@@@@@@@@@@@@@@@@@@@@@@@@@@@@@@@@@@@@@@@@@@@@@@@@@....",
"....@@@@@@@@@@@@@@@@@@@@@@@@@@@@@@@@@@@@@@@@@@@@@@@@@@@@@@@@....",
"....@@@@@@@@@@@@@@@@@@@@@@@@@@@@@@@@@@@@@@@@@@@@@@@@@@@@@@@@....",
"....@@@@@@@@@@@@@@@@@@@@@@@@@@@@@@@@@@@@@@@@@@@@@@@@@@@@@@@@....",
"    ....####        ########        ########        ####....OOOO",
"    ....####        ########        ########        ####....OOOO",
"    ....####        ########        ########        ####....OOOO",
"    ....####        ########        ########        ####....OOOO"
};
