/* XPM */
static char *_4b5aa35bffc4f5bca7b2c27756c0babCNUqlvczhlCGAt8p[] = {
/* columns rows colors chars-per-pixel */
"64 64 6 1 ",
"  c black",
". c #5F5F5F",
"X c yellow",
"o c #18FFFF",
"O c gray68",
"+ c white",
/* pixels */
"XXXX........................                    ............    ",
"XXXX........................                    ............    ",
"XXXX........................                    ............    ",
"XXXX........................                    ............    ",
"....OOOOOOOOOOOOOOOOOOOO    ++++++++++++++++++++    OOOOOOOO....",
"....OOOOOOOOOOOOOOOOOOOO    ++++++++++++++++++++    OOOOOOOO....",
"....OOOOOOOOOOOOOOOOOOOO    ++++++++++++++++++++    OOOOOOOO....",
"....OOOOOOOOOOOOOOOOOOOO    ++++++++++++++++++++    OOOOOOOO....",
"....OOOOOOOOOOOOOOOO    ++++++++            ++++++++    OOOO....",
"....OOOOOOOOOOOOOOOO    ++++++++            ++++++++    OOOO....",
"....OOOOOOOOOOOOOOOO    ++++++++            ++++++++    OOOO....",
"....OOOOOOOOOOOOOOOO    ++++++++            ++++++++    OOOO....",
"....OOOOOOOOOOOOOOOO    ++++    oooooooooooo    ++++    OOOO....",
"....OOOOOOOOOOOOOOOO    ++++    oooooooooooo    ++++    OOOO....",
"....OOOOOOOOOOOOOOOO    ++++    oooooooooooo    ++++    OOOO....",
"....OOOOOOOOOOOOOOOO    ++++    oooooooooooo    ++++    OOOO....",
"....OOOOOOOOOOOOOOOO    ++++++++            ++++++++    OOOO....",
"....OOOOOOOOOOOOOOOO    ++++++++            ++++++++    OOOO....",
"....OOOOOOOOOOOOOOOO    ++++++++            ++++++++    OOOO....",
"....OOOOOOOOOOOOOOOO    ++++++++            ++++++++    OOOO....",
"....OOOOOOOOOOOO    ++++++++++++++++++++++++++++++++    OOOO....",
"....OOOOOOOOOOOO    ++++++++++++++++++++++++++++++++    OOOO....",
"....OOOOOOOOOOOO    ++++++++++++++++++++++++++++++++    OOOO....",
"....OOOOOOOOOOOO    ++++++++++++++++++++++++++++++++    OOOO....",
"....OOOOOOOOOOOO    ++++++++++++++++++++++++++++++++    OOOO....",
"....OOOOOOOOOOOO    ++++++++++++++++++++++++++++++++    OOOO....",
"....OOOOOOOOOOOO    ++++++++++++++++++++++++++++++++    OOOO....",
"....OOOOOOOOOOOO    ++++++++++++++++++++++++++++++++    OOOO....",
"....OOOOOOOOOOOO    ++++++++++++++++++++++++++++++++++++    ....",
"....OOOOOOOOOOOO    ++++++++++++++++++++++++++++++++++++    ....",
"....OOOOOOOOOOOO    ++++++++++++++++++++++++++++++++++++    ....",
"....OOOOOOOOOOOO    ++++++++++++++++++++++++++++++++++++    ....",
"....OOOOOOOO    ++++++++++++++++++++++++++++++++++++++++    ....",
"....OOOOOOOO    ++++++++++++++++++++++++++++++++++++++++    ....",
"....OOOOOOOO    ++++++++++++++++++++++++++++++++++++++++    ....",
"....OOOOOOOO    ++++++++++++++++++++++++++++++++++++++++    ....",
"....OOOOOOOO    ++++++++++++++++            ++++++++++++    ....",
"....OOOOOOOO    ++++++++++++++++            ++++++++++++    ....",
"....OOOOOOOO    ++++++++++++++++            ++++++++++++    ....",
"....OOOOOOOO    ++++++++++++++++            ++++++++++++    ....",
"....OOOOOOOO    ++++++++++++    OOOOOOOOOOOO    ++++++++    ....",
"....OOOOOOOO    ++++++++++++    OOOOOOOOOOOO    ++++++++    ....",
"....OOOOOOOO    ++++++++++++    OOOOOOOOOOOO    ++++++++    ....",
"....OOOOOOOO    ++++++++++++    OOOOOOOOOOOO    ++++++++    ....",
"....OOOOOOOO    ++++++++++++    OOOOOOOOOOOO    ++++++++    ....",
"....OOOOOOOO    ++++++++++++    OOOOOOOOOOOO    ++++++++    ....",
"....OOOOOOOO    ++++++++++++    OOOOOOOOOOOO    ++++++++    ....",
"....OOOOOOOO    ++++++++++++    OOOOOOOOOOOO    ++++++++    ....",
"....OOOO    ++++++++++++    OOOOOOOOOOOOOOOO    ++++++++    ....",
"....OOOO    ++++++++++++    OOOOOOOOOOOOOOOO    ++++++++    ....",
"....OOOO    ++++++++++++    OOOOOOOOOOOOOOOO    ++++++++    ....",
"....OOOO    ++++++++++++    OOOOOOOOOOOOOOOO    ++++++++    ....",
"....OOOO    ++++++++++++    OOOOOOOOOOOO    ++++++++++++    ....",
"....OOOO    ++++++++++++    OOOOOOOOOOOO    ++++++++++++    ....",
"....OOOO    ++++++++++++    OOOOOOOOOOOO    ++++++++++++    ....",
"....OOOO    ++++++++++++    OOOOOOOOOOOO    ++++++++++++    ....",
"....    ++++++++++++    OOOOOOOOOOOO    ++++++++++++++++    ....",
"....    ++++++++++++    OOOOOOOOOOOO    ++++++++++++++++    ....",
"....    ++++++++++++    OOOOOOOOOOOO    ++++++++++++++++    ....",
"....    ++++++++++++    OOOOOOOOOOOO    ++++++++++++++++    ....",
"                    ................                    ....XXXX",
"                    ................                    ....XXXX",
"                    ................                    ....XXXX",
"                    ................                    ....XXXX"
};
