/* XPM */
static char *_eea0a2108df4904ee339b7816602c71RrA2t5MbN4AoPwlh[] = {
/* columns rows colors chars-per-pixel */
"79 79 253 2 ",
"   c #06050B",
".  c #0E0E16",
"X  c #0E0E1A",
"o  c #110F16",
"O  c #110F1C",
"+  c #12111B",
"@  c #17151C",
"#  c #100E11",
"$  c #381319",
"%  c #141323",
"&  c #19172B",
"*  c #1B192D",
"=  c #191725",
"-  c #1D1B32",
";  c #1E1B38",
":  c #100F21",
">  c #231E28",
",  c #211E3B",
"<  c #211E36",
"1  c #262328",
"2  c #23213C",
"3  c #2B273B",
"4  c #3A2F36",
"5  c #470916",
"6  c #580B19",
"7  c #4B1118",
"8  c #670C16",
"9  c #55241A",
"0  c #6F2A19",
"q  c #571625",
"w  c #421822",
"e  c #592A25",
"r  c #5B3429",
"t  c #503335",
"y  c #67372C",
"u  c #783A29",
"i  c #673A34",
"p  c #753D34",
"a  c #702D2A",
"s  c #701C28",
"d  c #56443D",
"f  c #79452D",
"g  c #69453B",
"h  c #7C4434",
"j  c #794838",
"k  c #262343",
"l  c #292545",
"z  c #2B2A4B",
"x  c #292748",
"c  c #302C4C",
"v  c #39374A",
"b  c #2E2E51",
"n  c #333355",
"m  c #36355B",
"M  c #3A365B",
"N  c #3A3A5C",
"B  c #3A3754",
"V  c #322F52",
"C  c #3D3D62",
"Z  c #413C5D",
"A  c #453A54",
"S  c #4B3849",
"D  c #433E63",
"F  c #763F43",
"G  c #3F4259",
"H  c #3F4167",
"J  c #5B4743",
"K  c #48455A",
"L  c #524D55",
"P  c #684A44",
"I  c #794C45",
"U  c #6A5448",
"Y  c #765548",
"T  c #765A54",
"R  c #685856",
"E  c #7B6354",
"W  c #434165",
"Q  c #45446A",
"!  c #4A486A",
"~  c #534E68",
"^  c #695E6F",
"/  c #71696E",
"(  c #873F2E",
")  c #80361B",
"_  c #84462C",
"`  c #844B34",
"'  c #834B3A",
"]  c #894A36",
"[  c #954D39",
"{  c #84533D",
"}  c #8A543B",
"|  c #93583D",
" . c #994C2A",
".. c #A55537",
"X. c #93613E",
"o. c #835443",
"O. c #8A5B44",
"+. c #885948",
"@. c #985745",
"#. c #885B55",
"$. c #8F544E",
"%. c #A55B47",
"&. c #97654A",
"*. c #876756",
"=. c #946A56",
"-. c #98735A",
";. c #8C6D56",
":. c #AA6649",
">. c #A66855",
",. c #B66B56",
"<. c #A87559",
"1. c #B8755A",
"2. c #B66A46",
"3. c #8C7566",
"4. c #987968",
"5. c #887978",
"6. c #947B74",
"7. c #8D6A6B",
"8. c #A87966",
"9. c #B87A64",
"0. c #AA7572",
"q. c #825B61",
"w. c #C57858",
"e. c #C3704F",
"r. c #C77C65",
"t. c #C67D6F",
"y. c #9B867B",
"u. c #A9826C",
"i. c #B88569",
"p. c #A78775",
"a. c #B98976",
"s. c #BA9279",
"d. c #AC907B",
"f. c #B7825A",
"g. c #CF845B",
"h. c #C8866A",
"j. c #C88A74",
"k. c #D78A74",
"l. c #C69679",
"z. c #D8957A",
"x. c #D6896A",
"c. c #E4947B",
"v. c #E08E74",
"b. c #E0A37F",
"n. c #767184",
"m. c #847D84",
"M. c #877D86",
"N. c #8F7C87",
"B. c #A97C83",
"V. c #8B8386",
"C. c #8C848B",
"Z. c #89848A",
"A. c #91868B",
"S. c #938A8D",
"D. c #9B8B8D",
"F. c #988686",
"G. c #8D8794",
"H. c #948C94",
"J. c #998E96",
"K. c #958B96",
"L. c #979096",
"P. c #9B9296",
"I. c #9C939B",
"U. c #9D969C",
"Y. c #9C918E",
"T. c #A68C87",
"R. c #A8958C",
"E. c #B79789",
"W. c #A29595",
"Q. c #A1969D",
"!. c #A49A9D",
"~. c #AB9D9C",
"^. c #AA9993",
"/. c #B59B97",
"(. c #A98D8F",
"). c #ADA29C",
"_. c #B3A29D",
"`. c #BAA39A",
"'. c #9C96A3",
"]. c #9996A9",
"[. c #A59CA2",
"{. c #A99EA5",
"}. c #A59CA7",
"|. c #B49CA4",
" X c #A49FB5",
".X c #ACA1A5",
"XX c #ACA3AB",
"oX c #A9A4AA",
"OX c #B3A4A4",
"+X c #B5AAA5",
"@X c #B1A6AC",
"#X c #B3AAAD",
"$X c #BBACAC",
"%X c #BBA7A5",
"&X c #BCB2AC",
"*X c #ADAAB2",
"=X c #B2A6B1",
"-X c #B4ABB3",
";X c #BAAEB4",
":X c #BBAEB8",
">X c #BDB1B5",
",X c #BDB2BA",
"<X c #BFB5BD",
"1X c #BDB3BB",
"2X c #B8B1B8",
"3X c #C69A86",
"4X c #D69B83",
"5X c #E69884",
"6X c #F49C8C",
"7X c #CBA48A",
"8X c #D6A78A",
"9X c #C9A895",
"0X c #D7AC94",
"qX c #DBB397",
"wX c #DDB08F",
"eX c #E4A688",
"rX c #E5B699",
"tX c #EDAE94",
"yX c #C3AAA6",
"uX c #CAB3AA",
"iX c #DBB8A4",
"pX c #C1B6BE",
"aX c #C1B6BE",
"sX c #C5B6B5",
"dX c #D0B8B3",
"fX c #E6BBA3",
"gX c #F1BDA5",
"hX c #E9C4A9",
"jX c #F3C6AB",
"kX c #EACAB5",
"lX c #F5CDB3",
"zX c #F9D6BA",
"xX c #EED5B7",
"cX c #E0C3A8",
"vX c #C3B8C0",
"bX c #C5BAC2",
"nX c #C4BAC2",
"mX c #C9BDC5",
"MX c #D8D0D4",
"NX c #E6CCC2",
"BX c #FDDDC3",
"VX c #F9DBC6",
"CX c #F2D7D0",
"ZX c #FFE3CA",
"AX c #FFE2C4",
"SX c #FFE9D4",
"DX c #FFF0D9",
"FX c #FEF5FC",
"GX c #FEFBFE",
"HX c #FAF5F7",
"JX c #F3E9ED",
"KX c #EADCE4",
"LX c #BABCC8",
/* pixels */
"I.I.I.Q.Q.Q.Q.Q.Q.Q.!.[.[.[.[.[.[.[..X.X{.{.{.{.{..X.X.XXXXX@X@XXXXXXX=X=X=X=X=X=X=X=X-X-X-X-X;X-X;X;X;X:X:X,X1X1X1X<XpX<X<X<X<XvXvXvXvXvXbXbXbXbXbXmXmXmXmXmX",
"I.I.Q.Q.Q.Q.Q.Q.Q.Q.[.[.[.[.[.[.[.[..X.X{.{.{.{..X.X.X.X.XXX@X@XXXXXXXXX@X@X=X@X=X@X=X-X-X-X-X-X;X;X;X;X;X,X,X1X1X1XpX<X<X<X<XpXpXpXvXvXbXbXbXbXbXbXmXmXmXmXmX",
"I.I.Q.Q.Q.Q.Q.Q.Q.Q.[.[.[.[.[.[.[.[.[.[.[.[.[.[.{.{..X.X.X.XXXXXXXXXXX.XXXXX@X@X=X@X=X#X#X#X-X-X>X>X;X;X;X2X,X,X,X,X<X<X<X<X<XpXpXpXpXvXbXbXbXbXbXbXbXmXmXmXmX",
"I.I.I.Q.Q.Q.Q.Q.Q.Q.Q.Q.[.[.[.[.[.[.[.[.[.[.[.[.{.{..X.X.X.XXXXXXXXX.X.X.XXX@X@X@X@X#X#X#X-X-X-X;X;X;X;X;X;X:X,X,X,X,X<X<X<XpXpXpXpXpXvXbXbXbXbXbXbXbXmXmXmXmX",
"I.I.I.Q.Q.Q.Q.Q.[.U.I.I.U.[.[.[.[.[.[.[.[.[.{.{.{.{.{..X.X.XXXXX@X@X.X.X@X@X@X@X@X@X#X#X#X-X-X#X#X#X#X#X;X>X:X>X,X,X,XaXaX<XpXpXpXpXpXvXvXbXbXbXbXbXbXbXbXmXbX",
"I.I.I.Q.Q.U.U.Q.[.Q.I.I.Q.[.[.[.[.[.[.[.}.}.{.{.{.{.{..X.X.XXX@X@X@X@X@X@X@X@X@X@X@X#X#X#X#X-X-X#X#X-X-X;X>X>X>X,X,X,X,X,XaX<XpXpXpXpXpXvXvXbXbXbXbXbXbXbXbXbX",
"U.I.I.Q.Q.U.U.[.[.[.Q.Q.[.[.[.[.[.[.[.[.}.{.{.{.{.{.{..X.X.XXXXX.X.X.X.XXXXXXXXX@X@X#X=X=X=X=X=X-X-X-X;X>X>X>X>X2X,X,X,X,X,X,X<XpXpXpXpXpXvXbXbXbXbXbXbXbXbXmX",
"U.I.I.Q.Q.U.U.[.Q.Q.[.[.[.Q.Q.[.[.[.[.[.[.{.{.{.{.{.{..X.X.X.X.X.XXX.X.X.X.X.X.XXX@X#X=X=X=X=X=X=X=X-X-X;X;X;X;X2X,X,X,X,X,X,X,XpXpXpXpXpXvXbXbXbXbXbXbXbXmXmX",
"I.I.I.U.Q.[.[.[.[.[.[.Q.[.Q.Q.!.!.Q.[.{.[.[.[.{.{.{.{.{.{..X.X{.{.XXXXXX.X.X.X@X@X@X@X=X@X@X=X-X=X:X;X-X;X:X;XpX;X;X,X:XpX,X,X,XpXpXpXpXpXpXpXpXvXbXbXbXbXbXbX",
"I.I.U.U.Q.Q.Q.Q.Q.Q.{.!.{.!.!.!.!..X!.Q..XXX{.[.{.{.{.{.{..X.X.XXXoX{..XXX@X.X{..X.X.X@X#X-X-X=X=X=X-X;X-X:X:X;XpX,X2X-X,X2X,X,X<X<XpXpXpXpXpXpXvXvXbXbXbXbXbX",
"U.U.U.U.U.U.Q.Q.[.I.Q.{.#X.X!.W.+X>X+XQ.[.{.[.[.{.{.{.{.{.{..X.XoXoXoXXX.X.X@X@XOX@XOX@XOXOXOX@X$X$X@X-X$X;X;X;X-X;X,X2X2X;X2X<X<X<X<XpXpXpXpXpXpXvXbXbXvXvXvX",
"U.U.U.U.U.U.Q.Q.Q.Q.Q.OX$XW.W.Y.+X$X+X~.[.[.[.{.[.{.{.{.{.{.{.{..X.X.X.X{.{.OXOXOX~._.%X%X%X_.%XOX%XOX%X$X$X$XsXsX;X;X;X>X,X,X,X,X<X<XpXpXpXpXpXpXpXvXbXvXvXvX",
"U.U.U.U.U.U.Q.Q.U.U.Q.~.+X+X&X&X_.~.~.).!.Q.[.[.[.[.{.{.[.{.{.{.{.{.{.OXOXOX_./.^.yXdXNXdX`.`.9X/.p.6.T.`.yXyX%X%X$X$X;X>X>X;X2X,X,X<X<X<XpXpXpX<XpXvXvXvXvXvX",
"U.U.U.U.U.U.Q.Q.Q.[.>X$X&X&X_._.&X+X&XsX@X{.{.{.[.{.{.{.{.{.{.{.[.~..X_.~.R.T.y.4.p.9XNXSXNXiX7Xd.d.p.4.4.uXNXdXuXuXyXsX;X>X;X,X,X,X,X<X<X<XpXpX<XpXpXvXaXaXvX",
"U.U.U.U.U.U.Q.Q.U.!.>X+X_.R.R.+X_.+XsXsX@X!.!.Q.[.[.[.[.[.{.{.{.~.~.^.R.y.6.4.4.d.s.3X9XiXhXhXhX7Xl.s.s.-.4.7XkXCXNXdXsXsXaX,X2X2X,X,X,X<X<X<X<XpXpXpXpXpXpXvX",
"U.U.U.U.U.U.Q.Q.U.Q.~.sXdXR.R.R.&XsX>XOX!.!.[.{.[.[.[.[.[.!.!.!.W.R.F.y.y.d.E.E.9XhXzXlXiXiXjXzXzXhXl.l.l.u.4.9XkXkXNXNXdX;X;X,X>X,X,X,X,X<X<X<XpXpXpXpXpXpXvX",
"U.U.I.I.I.U.Q.Q.Q.P.!.$XOX&X^.W.&X+XsX~.!.!.Q.[.[.[.[.Q.{.!.~.~.y.6.6.4.4.p.d.9XhXBXZXBXlXjXlXjXjXfX8X8X8Xl.s.s.0XqXiXCXCXdX$X>X>X>X:X,X,X2X2XvX<X<XpXpXpXaX<X",
"U.U.U.U.I.U.Q.Q.U.Q..X#X!.~._.$X+X#XsXOX!.!.!.[.[.[.[.[.W..X_.R.6.3.4.4.8.d.E.0XkXVXVXkXfXfXgX0X0X0XwXwXwXwX8X8Xs.0XfXiXNXNX&X>XsX:X:X,X,X1X<X-XpXpXaXaX<X<X<X",
"I.U.U.U.U.Q.Q.Q.I.P..X@X+X~.~.W.W.OX#X.X!.!.!.[.[.U.[.[.!.OXD.6.3.3.4.8.p.s.3X9XfXSXSXzXfXqXfXfX7X0X0X8X8X8XrXhXqX0XkXVXNXdX+X&XsXsXsX>X-X2XvX<X1X<X<X<X<X<X<X",
"I.I.U.U.U.Q.Q.Q.[.U.P.W.!.W.+XOXD.~.Q.!.!.!.Q.Q.[.[.Q.!..XY./ 3.3.;.-.4.u.a.s.3X0XkXBXBXhX0X0X7X7X0XwXwXeX8XwXhXzXlXhXVXDXCXNXyX_.OX%X$X$X;X,X2X,X,X,X,X<X<X<X",
"I.I.I.I.I.Q.Q.Q.I.Q.U.Q.!.W..X.XP.!.J.Q.!.Q.Q.Q.U.[.[.!.~.5.E 6.3.;.;.-.8.u.a.3X9XhXxXVXZXkXiX9X7XwXrXrXjXrX8XrXhXBXAXZXSXDXDXCXdXyX^.^.$XsX;X>X>X>X,X,X<X<X<X",
"I.I.I.I.I.Q.Q.Q.[.Q.I.U.Q.!.!.Q.Q.!.I.Q.!.I.Q.[.Q.Q.!.W.D./ E *.;.-.;.-.8.8.a.s.3X0XhXBXBXAXBXhXrXhXrXwXgXgXrXhXhXhXAXSXZXZXSXSXSXkXE.T._.$X$XaX,X,X,X,X,X<X<X",
"I.I.I.I.I.Q.U.U.J.I.Q.U.Q.Q.U.Q.Q.Q.Q.Q.Q.I.[.Q.Q.U.Q.!.5.T T Y ;.;.;.-.8.8.u.a.s.7X9XiXlXBXZXZXlXjXrXrXrXrXjXlXhXkXxXVXZXBXlXZXzXiX/.T.^.OXOX$X>X>X,X,X,X,X<X",
"I.I.I.I.I.Q.U.U.[.U.[.I.[.Q.U.Q.Q.I.Q.I.Q.Q.[.I.U.Q.Q.~./ J U E ;.-.;.-.-.<.8.a.s.l.s.7X9XiXBXDXzXhXhXjXgXgXlXzXZXBXxXBXBXzXzXzXiX9XE.T.R.OX$X$X;X>X>X,X,X<X<X",
"I.I.I.I.U.U.U.U.U.U.Q.Q.U.I.U.Q.U.U.U.U.Q.Q.Q.Q.I.Q.!.F.T J U E -.;.u.4.-.4.a.3Xs.i.s.3X7XqXhXzXAXlXjXfXfXjXzXZXSXZXBXAXlXjXjXfX0XiX9XE./.OXOX@X>X>X>X,X<X<X1X",
"I.I.I.I.I.I.U.U.I.U.U.U.I.I.U.Q.U.U.U.U.Q.Q.U.U.Q.Q.P.5.d d U E *.;.4.u.u.8.u.l.a.i.s.a.l.wXrXfXzXAXzXwX0XlXkXZXDXSXBXzXjXfXrXqXjXfX9X9X`.^.W.#X;X;X>X>X,X1X1X",
"I.I.I.I.I.I.U.U.I.I.U.I.I.I.U.U.U.U.U.U.I.I.I.U.Q.P.Q.5.t P T T Y *.-.d.7Xu.=.u.a.i.s.i.l.8XrXrXfXhXBXlXqXhXhXBXSXBXhXfXfXqXwXrXfXfXqX9X`.~.!.#X;X;X;X2X,X,X2X",
"I.I.I.I.I.I.U.U.I.I.I.I.U.U.I.I.U.U.I.I.I.I.I.I.I.P.!.5.t U T T E 3.u.p.E.7Xu.u.a.a.l.l.i.l.l.7X8XqXlXzX0XqXhXkXBXxXhXfXrXrXwXwX7X9X9XE./.OX{.@X;X;X;X;X:X2X2X",
"I.I.I.I.I.I.I.I.U.U.U.U.U.I.I.I.I.I.I.I.I.I.I.I.U.P.Q./ d U T *.#.*.p.p.p.3X3X3Xa.l.l.l.i.i.i.i.l.7XrXjXfXqXfXlXBXzXlXjXrXrXrX8X7X3XE.T.^..X.X-X;X2X;X;X;X;X2X",
"I.I.I.I.I.I.I.I.U.U.U.U.U.I.I.I.I.I.I.I.I.I.I.I.U.P.J.R J U T *.*.;.;.-.u.E.9X0Xl.a.i.8.i.<.i.i.l.l.rXgXlXjXfXzXBXhXrXrXwX8XwX7X7XE.E.E._.OX#X-X2X2X:X;X-X-X2X",
"U.U.I.I.I.I.I.I.U.U.U.U.I.I.I.I.P.P.P.P.P.I.I.I.I.P.D.J J U T *.*.-.*.-.8.-.p.fX0X3Xa.i.8.<.i.l.j.l.8XwXrXlXjXlXjX8X4X8X8Xl.l.s.s.E.T./.%XOX-X=X-X-X-X-X-X-X>X",
"U.I.I.I.I.I.I.I.U.I.I.I.I.I.I.I.P.P.P.P.P.P.I.I.I.Q.D.d J U E *.*.+.-.;.=.-.-.-.l.4Xl.i.=.>.9.l.4Xz.j.eXrXjXjXrX7X4Xl.j.j.i.i.s.E.E.T.`.$X.X;X;X;X-X-X-X-X;X2X",
"U.I.I.I.I.I.I.L.L.L.I.I.I.I.I.I.I.I.I.J.J.I.I.I.J.!.F.J d U E E *.*.*.;.&.&.&.&.<.9.i.l.l.9.<.j.z.z.4X8X8X8XeXtXeXz.j.i.i.i.f.i.u.p.T.OX-X;X=X;X-X-X-X-X2X2X:X",
"I.I.I.I.I.I.I.I.L.L.I.I.I.I.I.I.I.I.I.J.J.I.I.I.P.W.5.J t g U *.*.*.;.;.&.&.X.X.&.<.<.<.l.i.9.1.j.h.j.4XeXeXeXeXb.b.j.i.i.1.1.<.u.p.6.%X;X;X;X-X#X#X-X-X2X2X:X",
"I.P.I.I.I.I.I.I.I.I.I.I.I.I.L.L.I.I.J.J.J.J.I.I.J.J.5.J t g U *.*.*.#.O.} } | | | &.:.>.h.h.j.r.r.h.,.9.h.k.eXeXc.z.h.h.j.i.<.:.-.u.T.%X=X=X=XXX#X#X=X-X-X2X2X",
"I.P.P.P.I.I.I.I.I.I.I.I.I.I.I.L.I.I.J.J.J.J.I.I.J.D.5.R P g g +.#.#.+.o.} } | | @.| } >.1.1.k.5Xk.h.r.k.h.x.x.v.x.x.h.j.h.1.:.>.O.3./.|.=X;X;X-X#X#X#X*X-X-X:X",
"L.L.L.L.I.I.I.I.I.I.I.I.I.I.L.L.J.J.J.J.J.I.I.I.P.A.5.T T g g +.Y +.+.O.O.| | | &.&.} [ @.1.r.h.k.w.,.r.,.w.x.w.1.h.j.h.9.9.>.-.-.4.`.OX-X*X=X-X#X#X#X*X-X-X;X",
"L.L.P.P.I.I.I.I.L.L.L.L.I.I.L.L.J.J.J.J.J.J.J.I.L.H.F.T Y Y o.+.+.+.+.O.O.O.&.-.&.&.<.@.u [ w.r.r.1.1.%.%.,.,.1.w.h.h.j.l.l.<.=.4.E._.@XXXoX=X@X#X@X@X*X=X-X-X",
"P.P.P.P.I.I.I.I.L.L.L.L.I.L.L.L.J.J.J.J.J.J.L.J.J.W.(.T P #.#.#.*.+.O.O.O.&.<.u.l.8.8.9.@.@.:.%.%.:.%.%.,.%.,.j.j.j.a.3Xl.a.<.;.4.`.OX@XXXXX;X@X@X#X*X*X-X=X-X",
"P.P.P.P.I.I.L.L.L.L.L.L.I.L.L.L.J.J.J.J.J.J.K.K.J.J.D.T I #.$.=.#.+.O.O.O.O.&.-.=.3Xa.a.a.j.9.%.@.[ %.%.>.>.j.i.i.8.<.8.8.8.8.;.E.yX%X[.=XoXXX@XXX#X*X*X-X=X-X",
"P.P.I.I.I.I.I.L.I.I.L.I.I.I.I.L.I.I.J.J.I.I.L.K.L.S.W.7.I #.p $.#.+.O.O.O.O.o.j j I 4.0.a.>.$.@.] [ [ @.@.' $.#.#.I y p p >.8.-.E.`.OX.X.X*X=XXX@XXXXX@X*X*X=X",
"L.L.L.P.I.I.L.L.L.L.L.I.I.I.L.L.I.L.J.J.I.I.J.L.I.L.D.6.q.I y h =.O.{ { O.{ j y y r e r i e y u u ( ] ] u u y r 9 y +.j ' 9.8.=.E./.OX.X.XXXXX.X.XXXXX@X*X*X#X",
"L.L.L.L.L.L.I.I.L.L.L.L.L.K.K.L.L.K.J.J.J.J.J.J.K.I.D.(.7.I p $.&.O.O.O.O.O.o.I i r 9 r i e y 9 u [ ,.%.0 p e i r p -.=.>.j.>.8.E.~.OX.XoXoX.XXX.X.XoXoX*X*X=X",
"L.L.L.L.L.L.I.I.K.L.L.L.K.K.K.K.L.K.J.J.J.J.J.J.K.L.D.W.7.P i $.=.O.O.{ { { +.*.Y I g g i y y a u ,.t.1.a 0 p I #.0.0.t.j.4X9.a./.~.{..XoX.X.XXX.X.XoXoX*X*X=X",
"L.L.L.L.K.K.K.K.K.K.L.L.L.K.K.K.L.K.J.J.J.J.J.K.K.H.H.(.7.P i p #.+.o.o.{ o.o.+.o.I +.o.j p y u } 9.k.k.[ 0 ' I $.=.%.9.k.4Xj.3X/.~.{.oXoXoXoXXXXXXXoXoXoXXX#X",
"L.L.L.L.K.K.K.K.K.L.L.L.L.K.K.K.K.K.J.J.J.J.K.K.H.H.H.D.N.T #.p o.o.o.o.O.O.O.o.o.j I j p p ' ' @.:.c.k.,.] u h ' ` @.9.z.j.j.3XE.!.[..XoXoX[..XXXXXoXoXoXoX@X",
"L.L.L.L.L.L.K.K.K.K.K.K.L.L.K.K.H.H.K.J.J.H.K.K.H.K.H.D.T.7.#.I I o.o.{ { } } { ' ' j ' o.` @.o.@.,.c.c.r...%.@.} >.h.k.z.j.l.3X/.{.{.oXoXoX[..X.X.XoXoXoXoXXX",
"L.L.L.L.L.L.L.K.K.K.K.K.L.L.K.K.H.H.K.H.H.H.H.K.S.H.S.H.D.6.P I I o.o.o.{ O.O.} ' ' o.o.@.] ] ] @.1.c.v.r.,.,.1.h.r.w.x.h.9.a.E./.{.[.[.[.oX[..X.X.X.XoXoXoXXX",
"Y.L.L.L.K.K.H.H.H.H.H.H.H.H.H.H.H.A.H.H.H.J.H.H.A.J.H.S.S.D.5.P g I o.o.{ ` } ` ' ' } @.@.[ _ [ ,.w.6X6Xe.:.r.h.w.e.e.e.,.8.d.E.!.[.[.[.[.[.[.[.[..X.XoXoXoXoX",
"Y.L.L.H.H.H.H.H.H.H.H.H.H.H.H.S.S.H.C.A.H.C.H.H.J.C.H.A.S.M.A.R P #.I o.j h ` _ ] ] @.@.%.@.u u ,.r.5X6Xr.%.w.h.r.e.e...@.8.E.^.{.U.[..X[.[.[.U.[.[.[.[.oXoXoX",
"H.H.H.H.H.H.H.H.H.H.H.H.H.H.H.S.C.L.S.H.H.Z.C.A.C.S.C.Z.S.J.m.$ E *.Y I ` ` ] ] ] ] | @.@.u 0 u r.h.c.5X6X..:.r.w.e.2...>.a.T.^.P.U.[.'.Q.[.[.[.[.[.[.[.[.[..X",
"H.H.H.H.S.H.H.H.H.H.H.H.H.H.S.S.H.A.S.C.C.H.C.C.C.S.C.L.M.L @ # 3.U Y j { ` _ _ ] ] ] @.] 0 a @.9.4X5XeXtXw...w.w.e...:.1.0.T.W.Q.[.[.I.[.[.U.[.!.[.[.[.[.[..X",
"K.K.K.S.S.S.S.S.S.S.S.S.C.C.C.C.C.M.H.C.m.Z.C.C.C.Z.Z.L > @ > 1 5.g g j ' ` _ ] _ } } } } u a u &.9.h.5Xk.r.( 2.w.2.2.w.9.0.(.[.[.L.I.'.[.Q.[.Q.Q.Q.!.!.!.{.{.",
"K.K.K.S.S.S.S.A.S.A.A.C.C.C.Z.Z.C.C.C.G.Z.Z.L.C.M.L 1 + @ > o t F.*.i j ' ] } ] _ ] ` { } ` a 9 a } @._ [ 5Xw...e.g.w.1.9.0.5.K.K.}.}.'.U.U.'.U.U.Q.Q.Q.!.!.{.",
"K.H.H.A.A.A.A.C.C.C.C.C.Z.Z.Z.Z.Z.Z.M.G.K.M./ L + + + = + = o 4 Y.T.g g h ' ] ] ] _ f ` { ` ' h ' ` _ 0 ,.c.v... .w.g.h.a.#.S K K n.M.K. X}.'.'.'.'.U.U.Q.!.[.",
"S.S.S.A.C.C.V.V.V.C.C.C.Z.Z.Z.Z.C.K.G./ L 4 o + = O @ + + @ @ @ 5.^.Y y j ' _ ] ` f f O.O.h ' ` ' ' u [ 5Xz.v.x...e.g.j.0.T ~ W ~ K v ~ / n.'.oX].'.'.'.[.[.[.",
"S.A.A.A.C.V.V.V.Z.V.M.M.G.M.M.m.~ 3 v > . + + @ + + + + o @ +   / %X3.g y h } ` f f ` { { ' ' ' ' p ( j.z.z.x.v.w.e.x.j.=.4 ~ Q ! ! ! W Z W ! ~ n. X].K. X}.}.",
"A.C.V.V.V.V.V.m.M.Z.H.M.^ ~ > @ * O = @ + + + o + + + + o @ +   / ~.^.T i j j ` ` f h { h h { ` $.p >.h.9.h.:.2.x.w.r.a.T S ! Q Q ! ! ! ! ! W W ~ Z B ^ M.G. X",
"V.V.V.V.m.m.Z.Z.C.Z.L K > % = + = @ O . + o @ + + o + + + + +   R W.^.y.Y j f h { ` f f h { h u 0 0 0 0 ] 1...0  .r.t.0.t A W Q Q Q Q Q Q Q ! ! ! W W W Z ~ n.",
"A.Z.Z.Z.C.G.Z.n.L 3 > % % * O + + = + + @ o + o o . + + + + + . 4 V.).`.4.r g j j ` f u h ` f h u ( @.,.:.:.h.2.) %.0.#.S A Z Q Q Q Q Q Q ! ! ! Q Q ! ! ! ~ ! ",
"m.m.Z.G.M./ K 3 2 * * * * X = % . . + + . + . . o . o + O + + + o 5.~.W._.E r j o.h u h h f h h u u u 0 8 0  .2._ a 7.S S A M W Q Q Q ! ! Q Q Q Q Q Q W W W ! ",
"G.G.M.^ A 3 3 3 2 < - % % + + . % . + +   . . + . . o + + + + + o R S.~.^.`.*.r j j h h f f f u u 0 ( [ [ %.2.w.i.j P S A V Z D Q Q Q Q Q Q Q Q H H Q W D ! ! ",
"n.~ v 3 3 l l , , , 2 * & = + + . . . + . o . . . o o o + + + + o J S.P.)._.E.*.y j ' h u f f f } ,.t.5X6Xc.x.h.-.4.A.A D D V N Z D Q Q Q Q Q Q ! C W Q D Z Q ",
"v l l l l k k k k 2 ; * - % % + . + . + + . . o . o o . + + + + o 1 / Y.).R.%X`.*.g p j h h h f ` 9.t.1.r.t.h.9.E.DXbXK D M M B Z Q ! W W Q Q Q Q Q W W W D W ",
"l l l l l x l l l 2 2 < * & & % + + . . . . . . + . . + + + % %   1 5.S.P._.)._.%X3.P I j j p h u ' @.>.<.>.#.iXHXFXMX~ Z Z N n Z W Q Q W Q Q Q Q W W C C N W ",
"l l x x x x x x x k 2 2 - * & % % O . . . . . . + . . + + + % % . 1 / S.D.~.OX+X)._.6.Y I I p p h j h j I #.E.CXFXGXJX~ B Z M N N C Q Q C W Q Q Q W C C N m C ",
"x x x x x x z x z l k 2 ; * & % % O . . . . . . . . . + + + + + . 1 ^ S.D.W..X+X$X+X^.6.P g I j I +.#.4.E.E._.HXHXGXGX^ B K n N m C Q Q C C Q Q Q C C N N n C ",
"z z x x z z x x x k 2 2 ; - & % % O . . . . . . . . . . + + + + +   K L.J.P.)..X$X.X+X/.6.7.I g 7.0.E.yX/._.dXHXFXFXGX^ B W n n N N Q W C C Q Q W C C N m n N ",
"z z z z z z x x l 2 2 2 - - * % % + . . . . . . o o + + + + + + @   K U.S.P.!.+X.X&X$X_.uXT.7 9 e F /.yXOX.XMXFXFXGXGX/ B K N V N N C C C D Q Q W C N n n b m ",
"z z z z z x x l k 2 , < ; - * & % + . . . . . . o o + + + + + + + . L U.S.P.!..X$XOX#XdX7.$ 5 7 5 5 e (.$XXXKXGXFXGXGXn.B G N n m m N C C Q Q Q W C N n b b m ",
"x z x x x x l k k , , < ; - * & % % + . . . . . . + + + + + + + . o v S.L.W.W.~.OX;XsX/ $ 7 q 5 6 q $ t |.mXFXFXFXFXGXG.K G B B n n m N C D Q W W N m b b z N ",
"x x x l l x k k k , , < ; - * & % % O . . . . . . o + + + + + + + + 1 / U.!.!.{.@X$XW./ w 5 6 6 6 5 q 7.N.:XHXGXFXFXGX'.K K n n n n m N C C C C C N n z z z N ",
"k k k k l l k k , ; ; ; ; - * & % X X + . . . . . . . . + + + + . @   ^ U.Q.!.{.~.W.N.N.B.i 6 6 6 5 q.|./.|.mXFXFXFXGXoXK N n n m n m m m m C C N m n l x b M ",
", , k k k k k k , ; - - - - & & & % O O X . . . + . . . + o + + + @   ^ I.U.!.!.A.N.N.N./.7.q 6 6 q 0./.(.|.=X,XJXHXGX2XB Z M M n n m m m m C C N m V l x V N ",
", , , 2 2 2 k 2 , ; - - - - & & % % : O + + X + + + + + + + + + O @ . ^ L.U.P.A.M.C./ 5.|.6.q 6 6 F 0.(.sXMXKXKXJXHXGXLXc N M M n n m N m m C C N n V l x z M ",
"- ; < , 2 2 2 2 2 ; - * - - * & % % : X % + X + + + + + + + + + + @ @ L S.J.A.5.V.m.5.A.~.q.5 6 5 o.0.yXHXFXGXGXFXGXGXMX3 N M V n n m N m m m N M n z k x z M ",
"- - - < 2 , 2 2 2 , - - - * * & & & % X % + O + + + + + + + + + + + @ 1 m.C.5.N.A.V.V.P.(.t 5 6 8 s B.dXJXGXFXGXGXGXGXKXx N N m n n m N N m N m m n z l z c B ",
"* * - - < 2 2 2 2 , - - - * * * * & % : : % % % + + + + + + + + + O + o m.V.5.A.J.D.V.Y.7.5 6 8 8 6 0.CXJXGXGXFXGXGXGXJXv G N m n n m N m N N M m n z l z c M ",
"& & - < < < 2 2 , , - - & & & * * * & % : % % + + + + + + + + + O + O + Z.M.5.F.D.A.F.D.q.7 6 8 8 s 0.KXFXFXGXFXGXGXGXHXK G N n n n m m m C C N m n z k x c M "
};
