/* XPM */
static char *_1c8e5eea29e4ff39bca165f2b5538b4gIHTwRDExNnm5v3B[] = {
/* columns rows colors chars-per-pixel */
"32 32 15 1 ",
"  c #171716",
". c #3B2414",
"X c #5F3E1F",
"o c #7A716D",
"O c #910101",
"+ c #D50000",
"@ c #91551D",
"# c #916703",
"$ c #945821",
"% c #996028",
"& c #4CAF50",
"* c #C28904",
"= c #CF9504",
"- c #8A8887",
"; c white",
/* pixels */
"XXXXXXXXXXXXXX.%%%%%%%%%%.XXXXXX",
"XXXXXXX XXXXXXX.%%%-%%%%%%.XXXXX",
".XXXXX  XXXXXXXX..%%%%%%-%%..XXX",
"$..........XXXXXXX.%%%%%%%%%%.XX",
"$$$$$-$$$$$.........%%%%%%%%%%.X",
"$o$$$$$$$$$$$$$$$$$$.%%%%%%%%%%.",
"$$$$$$$$$$$$$$$$$$$$$..-%%%%%%%%",
"$$$$$$$$$$$$$$$$$$$$$$o.%%%%%%%%",
"...$-$$$$$$$$$$$$$$$$$$$.%%%%%%%",
"XXX....$$.....$$$$$$$$$$$.%%%%%%",
"XXXX  O..XXXXX....$$$$$$$$..%%%%",
".XXX  ++XXXXXXXXXX...........%%%",
"@..XX  X XXXXXXXXXXXXXXXXXXXX..%",
"@@@.X  XXXXXXXXXXXXXXXXXXXXXXXX.",
"@@@@...XXXXXXXXXXXXXXXX=***==XXX",
"@@@@@@@..XXXXXXXXXXXXXXXXXX**XXX",
"@@@@@@@@@..XXXXXXXXXXXXXXXXXXXXX",
".@@@@@@@-@@.XXXXX   XX XXXX*=XXX",
"X.@@@@@@@@@@.XXXX       XXX#....",
"XX..@@@@@@@@.XXXX  &&&&  X..@@@@",
"XXXX.@@@-@@.XXXXX &&&&&&..@@@@@@",
"XXXXX...@@.XXXXX  &&&.&.&@@@@@@@",
"XXXXXXXX..XXXXXX X&.&@&@;@@@@@@@",
"X.......XXXXXXXXX.;%&@;@@@@@@@@@",
".%%%%%%%.......X.%@@;@@@@@@@@@@.",
"%%%-%%%%%%%%%%%.%%%@@@@@@@@@...X",
"%%%%%%%%%%%%%%%.%@%%@-@@@...XXXX",
"%%%%%%%%%%%%-%%%.@-@@@...XXXXXXX",
"%%-%%%%%%%%%%%%%.%@...XXXXXXXXXX",
"...............%%...XXXXXXXXXXXX",
"XXXXXXXXXXXXXXX...XXXXXXXXXXXXXX",
"XXXXXXXXXXXXXXXXXXXXXXXXXXXXXXXX"
};
